<?xml version="1.0" encoding="UTF-8"?>
<svg version="1.1" xmlns="http://www.w3.org/2000/svg" width="694" height="78">
<path d="M0 0 C229.02 0 458.04 0 694 0 C694 25.74 694 51.48 694 78 C464.98 78 235.96 78 0 78 C0 52.26 0 26.52 0 0 Z " fill="#FBFCFC" transform="translate(0,0)"/>
<path d="M0 0 C16.17 0 32.34 0 49 0 C49 4.95 49 9.9 49 15 C37.78 15 26.56 15 15 15 C15 16.65 15 18.3 15 20 C23.58 20 32.16 20 41 20 C41 21.65 41 23.3 41 25 C30.77 25 20.54 25 10 25 C10 20.05 10 15.1 10 10 C21.55 10 33.1 10 45 10 C45 8.35 45 6.7 45 5 C31.8 5 18.6 5 5 5 C5 16.55 5 28.1 5 40 C17.87 40 30.74 40 44 40 C44 38.35 44 36.7 44 35 C32.78 35 21.56 35 10 35 C10 33.35 10 31.7 10 30 C22.87 30 35.74 30 49 30 C49 34.95 49 39.9 49 45 C32.83 45 16.66 45 0 45 C0 30.15 0 15.3 0 0 Z " fill="#36445B" transform="translate(140,16)"/>
<path d="M0 0 C16.17 0 32.34 0 49 0 C49 4.95 49 9.9 49 15 C37.78 15 26.56 15 15 15 C15 16.65 15 18.3 15 20 C23.25 20 31.5 20 40 20 C40 21.65 40 23.3 40 25 C30.1 25 20.2 25 10 25 C10 20.05 10 15.1 10 10 C21.55 10 33.1 10 45 10 C45 8.35 45 6.7 45 5 C31.8 5 18.6 5 5 5 C5 16.55 5 28.1 5 40 C17.87 40 30.74 40 44 40 C44 38.35 44 36.7 44 35 C32.78 35 21.56 35 10 35 C10 33.35 10 31.7 10 30 C22.87 30 35.74 30 49 30 C49 34.95 49 39.9 49 45 C32.83 45 16.66 45 0 45 C0 30.15 0 15.3 0 0 Z " fill="#35435A" transform="translate(17,16)"/>
<path d="M0 0 C5.56835907 -0.12408068 11.13590436 -0.21456522 16.70532227 -0.2746582 C18.59771757 -0.29972197 20.49001683 -0.33378253 22.38208008 -0.37719727 C25.11043043 -0.4382101 27.8374955 -0.46629069 30.56640625 -0.48828125 C31.82463951 -0.52699089 31.82463951 -0.52699089 33.10829163 -0.56648254 C39.30592619 -0.56940715 42.32388041 0.91367497 47 5 C49.14798109 8.6422288 49.57326576 11.82334945 49 16 C47.53775775 18.81749117 45.8374904 21.4143885 44 24 C44.66 24 45.32 24 46 24 C48.39662675 28.19409682 49.70668044 31.1541913 49 36 C46.88264003 39.85661994 44.87737123 42.88223437 41 45 C37.80495236 45.41517095 34.63888781 45.34843511 31.421875 45.29296875 C30.03201385 45.28660149 30.03201385 45.28660149 28.61407471 45.28010559 C25.65908566 45.26333322 22.70478239 45.22568355 19.75 45.1875 C17.74480153 45.1724513 15.73959235 45.15876322 13.734375 45.14648438 C8.82244088 45.1159881 3.91198668 45.05726409 -1 45 C-1 36.75 -1 28.5 -1 20 C3.95 20 8.9 20 14 20 C14 23.3 14 26.6 14 30 C21.92 30 29.84 30 38 30 C38 31.65 38 33.3 38 35 C28.76 35 19.52 35 10 35 C10 31.7 10 28.4 10 25 C8.02 25 6.04 25 4 25 C4 29.95 4 34.9 4 40 C9.07250914 39.93118026 14.14418939 39.84324306 19.21606445 39.73754883 C20.94155693 39.70428828 22.66715849 39.67625981 24.39282227 39.65356445 C26.87303166 39.62003847 29.3522403 39.56772594 31.83203125 39.51171875 C32.98998955 39.50213387 32.98998955 39.50213387 34.17134094 39.49235535 C38.34184211 39.4007385 38.34184211 39.4007385 41.99926758 37.59130859 C43.31447219 35.49994395 43.22863459 34.36307055 42.875 31.9375 C42.78992188 31.24527344 42.70484375 30.55304687 42.6171875 29.83984375 C42.07799588 27.60968515 42.07799588 27.60968515 39 26 C36.77868577 25.6349209 36.77868577 25.6349209 34.33203125 25.5859375 C33.43935547 25.54726563 32.54667969 25.50859375 31.62695312 25.46875 C30.69818359 25.4378125 29.76941406 25.406875 28.8125 25.375 C27.87212891 25.33632813 26.93175781 25.29765625 25.96289062 25.2578125 C23.6421229 25.16356813 21.32136252 25.07795975 19 25 C19 23.35 19 21.7 19 20 C19.59014893 19.98018066 20.18029785 19.96036133 20.78833008 19.93994141 C23.46350096 19.84465341 26.13789498 19.73499061 28.8125 19.625 C30.2056543 19.57859375 30.2056543 19.57859375 31.62695312 19.53125 C32.51962891 19.49257813 33.41230469 19.45390625 34.33203125 19.4140625 C35.15421143 19.3826416 35.9763916 19.3512207 36.82348633 19.31884766 C39.28952937 19.11626378 39.28952937 19.11626378 42 17 C43.05661565 13.6037354 43.25884946 11.70007159 42.01831055 8.3449707 C40.1046613 5.62384617 40.1046613 5.62384617 36.35473633 5.34057617 C34.84764441 5.29948927 33.33966357 5.28528844 31.83203125 5.29296875 C31.03721848 5.27784744 30.2424057 5.26272614 29.42350769 5.24714661 C26.88621866 5.20417658 24.35011704 5.1954233 21.8125 5.1875 C20.0917651 5.16436271 18.37105859 5.13899897 16.65039062 5.11132812 C12.43348838 5.04838464 8.21733072 5.01612202 4 5 C4 6.65 4 8.3 4 10 C14.89 10 25.78 10 37 10 C37.495 12.475 37.495 12.475 38 15 C25.46 15 12.92 15 0 15 C0 10.05 0 5.1 0 0 Z " fill="#38455C" transform="translate(316,16)"/>
<path d="M0 0 C5.72911572 -0.09913284 11.45772839 -0.1715934 17.1875 -0.21972656 C19.13517966 -0.23979906 21.08279937 -0.26706332 23.03027344 -0.30175781 C25.83543721 -0.35046852 28.63980187 -0.37301241 31.4453125 -0.390625 C32.74409836 -0.42159271 32.74409836 -0.42159271 34.06912231 -0.45318604 C39.5396269 -0.45520063 42.68564722 0.31010402 47 4 C49.63686283 8.04318967 50.78414404 11.19711778 50 16 C47.78161333 20.19908904 45.51936783 23.28930456 41 25 C38.20915781 25.16858166 35.52228007 25.23284241 32.734375 25.1953125 C31.94097717 25.1924826 31.14757935 25.18965271 30.33013916 25.18673706 C27.80327083 25.17556779 25.27676068 25.15046944 22.75 25.125 C21.0338593 25.11496598 19.31771302 25.10584087 17.6015625 25.09765625 C13.40090426 25.07563914 9.2005128 25.04113187 5 25 C5 29.95 5 34.9 5 40 C6.65 40 8.3 40 10 40 C10 36.7 10 33.4 10 30 C16.6 30 23.2 30 30 30 C31.65 32.97 33.3 35.94 35 39 C36.65 39 38.3 39 40 39 C39.34 37.88625 38.68 36.7725 38 35.625 C36 32.25 36 32.25 36 30 C38.23046875 29.6015625 38.23046875 29.6015625 41 30 C42.7304151 32.14414436 43.99272175 34.00090175 45.3125 36.375 C45.67150391 36.97828125 46.03050781 37.5815625 46.40039062 38.203125 C49 42.65959821 49 42.65959821 49 45 C43.39 45 37.78 45 32 45 C31.4225 43.535625 30.845 42.07125 30.25 40.5625 C29.00763166 38.00339994 29.00763166 38.00339994 27 36 C22.97349957 34.90043551 19.15494656 34.83433227 15 35 C15 38.3 15 41.6 15 45 C10.05 45 5.1 45 0 45 C0 36.75 0 28.5 0 20 C4.27904297 19.92652344 4.27904297 19.92652344 8.64453125 19.8515625 C11.40475755 19.79756591 14.16489641 19.74025323 16.92504883 19.68261719 C18.84457904 19.64431423 20.76418135 19.60946367 22.68383789 19.578125 C25.4418313 19.53250298 28.19932777 19.4745042 30.95703125 19.4140625 C32.24623222 19.39673569 32.24623222 19.39673569 33.56147766 19.37905884 C34.36208115 19.35918915 35.16268463 19.33931946 35.98754883 19.31884766 C36.6914827 19.30552399 37.39541656 19.29220032 38.12068176 19.2784729 C40.33097464 19.08755815 40.33097464 19.08755815 43 17 C43.88757579 13.85934722 44.26479783 11.81645997 43.25 8.6875 C42.01833257 6.68716985 42.01833257 6.68716985 39 6 C36.41669771 5.84677641 33.85507761 5.74293111 31.26953125 5.68359375 C30.51911057 5.66281265 29.76868988 5.64203156 28.99552917 5.62062073 C26.60127816 5.55530074 24.20691861 5.49632208 21.8125 5.4375 C20.18813987 5.39429807 18.56379067 5.35068324 16.93945312 5.30664062 C12.95974629 5.19963737 8.97993042 5.09832063 5 5 C5 6.65 5 8.3 5 10 C15.89 10 26.78 10 38 10 C38.495 11.98 38.495 11.98 39 14 C38 15 38 15 34.39819336 15.11352539 C32.79540144 15.11336625 31.1926044 15.10767063 29.58984375 15.09765625 C28.74780899 15.0962413 27.90577423 15.09482635 27.03822327 15.09336853 C24.33794665 15.08775263 21.63775172 15.07519748 18.9375 15.0625 C17.11132932 15.05748705 15.28515734 15.05292379 13.45898438 15.04882812 C8.97262458 15.03777804 4.48632616 15.02050279 0 15 C0 10.05 0 5.1 0 0 Z " fill="#35435A" transform="translate(628,16)"/>
<path d="M0 0 C15 0 15 0 19.9375 4.375 C21.32901734 6.2224501 22.68281947 8.09883514 24 10 C25.46799291 11.86302573 26.94671901 13.71765852 28.4375 15.5625 C29.07558594 16.38878906 29.71367187 17.21507813 30.37109375 18.06640625 C31.86321702 20.09657508 31.86321702 20.09657508 34 21 C34 14.07 34 7.14 34 0 C38.95 0 43.9 0 49 0 C49 14.85 49 29.7 49 45 C33 45 33 45 28.125 40.1875 C26.74204699 38.13032421 25.36732327 36.06759724 24 34 C22.2641321 32.01060743 20.4931884 30.05124234 18.6875 28.125 C10.05306667 18.80926678 10.05306667 18.80926678 9.75 14.1875 C9.8325 13.135625 9.915 12.08375 10 11 C13.61345275 13.71797231 16.3991616 16.5103766 19.1875 20.0625 C23.2760832 25.17494689 27.57734155 29.99445533 32.03125 34.78515625 C34 37 34 37 35 39 C37.97 39.33 40.94 39.66 44 40 C44 28.45 44 16.9 44 5 C42.35 5 40.7 5 39 5 C39 14.9 39 24.8 39 35 C35.34077846 31.34077846 31.7636382 27.66691788 28.25 23.875 C27.72559326 23.31458008 27.20118652 22.75416016 26.66088867 22.17675781 C24.14275786 19.45565714 21.73643451 16.72761991 19.53515625 13.7421875 C18.80167969 12.75476562 18.06820312 11.76734375 17.3125 10.75 C16.68988281 9.85796875 16.06726563 8.9659375 15.42578125 8.046875 C12.37229653 5.08512478 12.37229653 5.08512478 4 5 C4 16.55 4 28.1 4 40 C5.98 40 7.96 40 10 40 C10 35.38 10 30.76 10 26 C15 30 15 30 15.48828125 33.671875 C15.45992555 35.03221671 15.39529407 36.39188411 15.3125 37.75 C15.1578125 41.33875 15.1578125 41.33875 15 45 C10.05 45 5.1 45 0 45 C0 30.15 0 15.3 0 0 Z " fill="#334159" transform="translate(199,16)"/>
<path d="M0 0 C16.17 0 32.34 0 49 0 C45.81168576 5.73896564 42.80307216 10.92708999 38.9375 16.125 C38.08908 17.27095167 37.24400597 18.41938834 36.40234375 19.5703125 C36.03616943 20.06289551 35.66999512 20.55547852 35.29272461 21.06298828 C33.37080316 23.94278522 31.71774539 26.99394557 30 30 C36.27 30 42.54 30 49 30 C49 34.95 49 39.9 49 45 C33.16 45 17.32 45 1 45 C6.57193923 34.97050938 6.57193923 34.97050938 9.6875 30.875 C12.11626125 27.64736454 14.40589279 24.39961224 16.52734375 20.96484375 C16.95893799 20.27729004 17.39053223 19.58973633 17.83520508 18.88134766 C18.68189674 17.52324334 19.5118507 16.15453058 20.32299805 14.77490234 C21.5078125 12.89453125 21.5078125 12.89453125 24 10 C27.3046875 9.57421875 27.3046875 9.57421875 30 10 C26.71081298 15.95777272 22.97733557 21.47637829 19.06640625 27.0390625 C18.60105469 27.70679687 18.13570313 28.37453125 17.65625 29.0625 C17.03459961 29.94615234 17.03459961 29.94615234 16.40039062 30.84765625 C14.4685646 33.81679471 12.75746216 36.92444123 11 40 C21.89 40 32.78 40 44 40 C44 38.35 44 36.7 44 35 C36.08 35 28.16 35 20 35 C22.41416955 30.77520329 24.64139394 26.92676523 27.41796875 23.01171875 C28.03220703 22.14095703 28.64644531 21.27019531 29.27929688 20.37304688 C29.90900391 19.48681641 30.53871094 18.60058594 31.1875 17.6875 C32.45298353 15.90056095 33.71736355 14.11283973 34.98046875 12.32421875 C35.53629639 11.54135498 36.09212402 10.75849121 36.66479492 9.9519043 C38.0341437 8.04494043 38.0341437 8.04494043 39 6 C27.78 5.67 16.56 5.34 5 5 C5 6.65 5 8.3 5 10 C9.29 10 13.58 10 18 10 C17.01 11.65 16.02 13.3 15 15 C12.16963444 15.38666196 10.10334884 15.48058758 7.3125 15.3125 C4.899375 15.209375 2.48625 15.10625 0 15 C0 10.05 0 5.1 0 0 Z " fill="#35435A" transform="translate(441,16)"/>
<path d="M0 0 C14.42285471 -1.91758409 14.42285471 -1.91758409 18.60644531 1.1953125 C21.65239964 4.66116863 23.60943088 8.60683162 25 13 C24.6796875 15.92578125 24.6796875 15.92578125 24 18 C23.01 18 22.02 18 21 18 C19.09226183 15.00277155 17.53345618 11.88380144 15.9140625 8.72265625 C14.25334759 5.77958938 14.25334759 5.77958938 11.2734375 5.12109375 C10.52320312 5.08113281 9.77296875 5.04117187 9 5 C10.57545413 7.90018598 12.16175303 10.79430293 13.75 13.6875 C14.1934375 14.50412109 14.636875 15.32074219 15.09375 16.16210938 C17.43784446 20.41939858 19.78900709 24.31636093 23 28 C23.45375 27.175 23.9075 26.35 24.375 25.5 C24.91125 24.675 25.4475 23.85 26 23 C26.66 23 27.32 23 28 23 C28.25652344 22.13761719 28.51304688 21.27523437 28.77734375 20.38671875 C30.04110938 16.88612832 31.63359063 13.98976407 33.5625 10.8125 C36.13063318 6.56826372 36.13063318 6.56826372 38 2 C38.66 2 39.32 2 40 2 C40 1.34 40 0.68 40 0 C45.61 0 51.22 0 57 0 C51.09054977 11.93708946 44.84465335 23.58614798 38.1875 35.125 C37.69475586 35.97989014 37.20201172 36.83478027 36.69433594 37.71557617 C36.23188477 38.51326416 35.76943359 39.31095215 35.29296875 40.1328125 C34.8755542 40.85355957 34.45813965 41.57430664 34.02807617 42.31689453 C33 44 33 44 32 45 C30.00041636 45.04080783 27.99954746 45.04254356 26 45 C27.63777761 40.40710191 30.00474798 36.41241677 32.5 32.25 C33.39333593 30.74615717 34.28656163 29.24224885 35.1796875 27.73828125 C35.64084961 26.96436035 36.10201172 26.19043945 36.57714844 25.39306641 C38.94139729 21.41668219 41.28212033 17.42649845 43.625 13.4375 C44.47124523 11.99863384 45.3175892 10.55982575 46.1640625 9.12109375 C47.07285156 7.57615234 47.07285156 7.57615234 48 6 C45.525 5.505 45.525 5.505 43 5 C43 5.66 43 6.32 43 7 C42.34 7 41.68 7 41 7 C40.72075684 7.72525879 40.44151367 8.45051758 40.15380859 9.19775391 C39.06896303 11.83251003 37.86329168 14.3145288 36.5390625 16.8359375 C36.06726563 17.73570313 35.59546875 18.63546875 35.109375 19.5625 C34.61953125 20.490625 34.1296875 21.41875 33.625 22.375 C32.90183594 23.75558594 32.90183594 23.75558594 32.1640625 25.1640625 C29.53431972 30.16629061 26.84003654 35.11406036 24 40 C23.34 40 22.68 40 22 40 C21.61779297 39.31075439 21.23558594 38.62150879 20.84179688 37.91137695 C11.41306978 20.82129061 11.41306978 20.82129061 1.2578125 4.16015625 C0 2 0 2 0 0 Z " fill="#39475E" transform="translate(76,16)"/>
<path d="M0 0 C16.17 0 32.34 0 49 0 C49 4.95 49 9.9 49 15 C45.04 15 41.08 15 37 15 C37 13.35 37 11.7 37 10 C39.64 10 42.28 10 45 10 C45 8.35 45 6.7 45 5 C31.8 5 18.6 5 5 5 C5 6.65 5 8.3 5 10 C10.61 10 16.22 10 22 10 C22 19.9 22 29.8 22 40 C23.65 40 25.3 40 27 40 C27 30.1 27 20.2 27 10 C28.65 10 30.3 10 32 10 C32 21.55 32 33.1 32 45 C27.05 45 22.1 45 17 45 C17 35.1 17 25.2 17 15 C11.39 15 5.78 15 0 15 C0 10.05 0 5.1 0 0 Z " fill="#35435A" transform="translate(257,16)"/>
<path d="M0 0 C1.32 0.33 2.64 0.66 4 1 C3.34 1.66 2.68 2.32 2 3 C1.69204301 6.01513069 1.69204301 6.01513069 1.74121094 9.60522461 C1.7377063 10.28344772 1.73420166 10.96167084 1.73059082 11.66044617 C1.72177101 13.90784875 1.72762402 16.15493782 1.734375 18.40234375 C1.73302826 19.96171631 1.73108765 21.52108847 1.72857666 23.08045959 C1.72562494 26.35145051 1.72992395 29.6223323 1.73925781 32.89331055 C1.750643 37.08783898 1.7440992 41.28211122 1.73211288 45.47663021 C1.7248875 48.6979414 1.72718549 51.91919182 1.73236847 55.14050484 C1.73370358 56.68707878 1.73206208 58.23365823 1.72740936 59.78022575 C1.72233398 61.94209283 1.73006869 64.10354472 1.74121094 66.26538086 C1.74280212 67.4962291 1.74439331 68.72707733 1.74603271 69.995224 C1.77182835 73.18061701 1.77182835 73.18061701 4 76 C6.12908161 76.45304331 6.12908161 76.45304331 8.6424464 76.37604749 C9.62924028 76.38355805 10.61603417 76.3910686 11.6327309 76.39880675 C13.27400623 76.3882715 13.27400623 76.3882715 14.94843864 76.37752342 C16.10777229 76.38188374 17.26710595 76.38624407 18.46157092 76.39073652 C21.70383702 76.39985146 24.94576948 76.39538903 28.18802304 76.38540266 C31.70612171 76.3778322 35.22417784 76.38755646 38.74227059 76.39513266 C44.91624221 76.40600092 51.09013525 76.40561878 57.26411057 76.39799118 C66.44486682 76.38667951 75.62555633 76.39242627 84.80631208 76.4016161 C101.20028265 76.41744435 117.59421824 76.41603175 133.98819217 76.40737936 C148.3357509 76.39984388 162.68329678 76.39785735 177.03085709 76.4014473 C177.981173 76.40167645 178.93148891 76.40190561 179.91060228 76.40214171 C183.76790055 76.40307567 187.62519882 76.40403086 191.48249708 76.405021 C227.69705135 76.41420631 263.91158328 76.40586472 300.12613411 76.38973031 C332.32319643 76.37549487 364.52022315 76.37676449 396.71728516 76.39111328 C432.86098881 76.40716693 469.00467272 76.41355269 505.14837945 76.40427649 C508.99942342 76.40331429 512.8504674 76.40237577 516.70151138 76.4014473 C518.12392919 76.40109145 518.12392919 76.40109145 519.57508271 76.40072841 C533.91466295 76.39731153 548.25422895 76.40131517 562.59380722 76.40888596 C578.89505259 76.41744933 595.19625738 76.41535019 611.49749766 76.39904372 C620.62823305 76.39021212 629.75888064 76.38969244 638.88961381 76.40098225 C644.98094717 76.40768521 651.07220982 76.40356677 657.16353266 76.39046794 C660.6393535 76.38329918 664.11499931 76.3809581 667.59081493 76.39168589 C671.32734125 76.40072029 675.06337892 76.39154147 678.79987907 76.37752342 C679.8893803 76.38454692 680.97888152 76.39157042 682.10139793 76.39880675 C683.09319885 76.3912962 684.08499978 76.38378564 685.10685527 76.37604749 C685.96180554 76.37584421 686.8167558 76.37564094 687.69761365 76.3754315 C690.48846966 75.92034921 691.89193063 74.83720797 694 73 C694 74.65 694 76.3 694 78 C464.98 78 235.96 78 0 78 C0 52.26 0 26.52 0 0 Z " fill="#667BF7" transform="translate(0,0)"/>
<path d="M0 0 C1.65 0 3.3 0 5 0 C4.34 2.31 3.68 4.62 3 7 C2.34 7 1.68 7 1 7 C0.77441406 7.63679688 0.54882812 8.27359375 0.31640625 8.9296875 C-1.50281132 13.17272906 -3.78601406 17.11297528 -6.0625 21.125 C-6.97241578 22.73043345 -7.88006789 24.33715257 -8.78515625 25.9453125 C-9.18613525 26.65187988 -9.58711426 27.35844727 -10.00024414 28.08642578 C-11.13026715 30.12576632 -11.13026715 30.12576632 -12 33 C-12.66 33 -13.32 33 -14 33 C-14.66 35.31 -15.32 37.62 -16 40 C-13.525 39.505 -13.525 39.505 -11 39 C-10.67 38.01 -10.34 37.02 -10 36 C-9.34 36 -8.68 36 -8 36 C-7.34 33.69 -6.68 31.38 -6 29 C-5.34 29 -4.68 29 -4 29 C-3.77570312 28.36707031 -3.55140625 27.73414062 -3.3203125 27.08203125 C-1.47583723 22.7764366 0.82715302 18.76505199 3.125 14.6875 C3.59292969 13.85154297 4.06085937 13.01558594 4.54296875 12.15429688 C5.6926259 10.10133767 6.84503802 8.04997798 8 6 C8.66 6 9.32 6 10 6 C12.17023916 9.78538159 14.33894474 13.57163665 16.50634766 17.35864258 C17.24097207 18.64175021 17.97598581 19.92463503 18.71142578 21.20727539 C23.23148762 29.09117589 27.67853665 37.00461117 32 45 C26.06 45 20.12 45 14 45 C12.63875 42.793125 11.2775 40.58625 9.875 38.3125 C9.43913574 37.62712158 9.00327148 36.94174316 8.55419922 36.2355957 C7.5546875 34.55078125 7.5546875 34.55078125 6 31 C6.7578125 28.04296875 6.7578125 28.04296875 8 26 C8.66 26 9.32 26 10 26 C11.7265625 28.5546875 11.7265625 28.5546875 13.625 31.875 C14.25664063 32.96554688 14.88828125 34.05609375 15.5390625 35.1796875 C17 38 17 38 17 40 C18.98 40 20.96 40 23 40 C22.60619141 39.34402832 22.21238281 38.68805664 21.80664062 38.01220703 C20.03322627 35.05249391 18.26654003 32.0888208 16.5 29.125 C15.56994141 27.57619141 15.56994141 27.57619141 14.62109375 25.99609375 C14.03457031 25.00996094 13.44804688 24.02382813 12.84375 23.0078125 C12.29912109 22.09660645 11.75449219 21.18540039 11.19335938 20.24658203 C10 18 10 18 10 16 C7.7522025 18.05233685 6.9977758 19.00667261 6 22 C5.34 22 4.68 22 4 22 C3.77570312 22.63292969 3.55140625 23.26585938 3.3203125 23.91796875 C1.47583723 28.2235634 -0.82715302 32.23494801 -3.125 36.3125 C-3.59292969 37.14845703 -4.06085937 37.98441406 -4.54296875 38.84570312 C-5.69261734 40.89864703 -6.84594514 42.94952983 -8 45 C-13.61 45 -19.22 45 -25 45 C-23.66666667 41.66666667 -22.33333333 38.33333333 -21 35 C-20.34 35 -19.68 35 -19 35 C-18.34 32.69 -17.68 30.38 -17 28 C-16.34 28 -15.68 28 -15 28 C-14.01 24.535 -14.01 24.535 -13 21 C-12.34 21 -11.68 21 -11 21 C-10.74476563 20.32582031 -10.48953125 19.65164062 -10.2265625 18.95703125 C-8.77131195 15.44867244 -7.09052165 12.07321448 -5.375 8.6875 C-5.05015625 8.04232422 -4.7253125 7.39714844 -4.390625 6.73242188 C-3.59558044 5.15402459 -2.79804366 3.57688306 -2 2 C-1.34 2 -0.68 2 0 2 C0 1.34 0 0.68 0 0 Z " fill="#36445B" transform="translate(587,16)"/>
<path d="M0 0 C1.98 0 3.96 0 6 0 C5.67 1.65 5.34 3.3 5 5 C4.34 5 3.68 5 3 5 C2.74025391 5.69528809 2.48050781 6.39057617 2.21289062 7.10693359 C0.87143693 10.30665708 -0.71707268 13.2583474 -2.40625 16.2890625 C-2.73161743 16.87416595 -3.05698486 17.45926941 -3.39221191 18.06210327 C-4.07664 19.29153359 -4.76249616 20.52016987 -5.44970703 21.74804688 C-6.49971238 23.624486 -7.5451367 25.50341935 -8.58984375 27.3828125 C-13.69314908 36.53972362 -13.69314908 36.53972362 -16 40 C-13.05272465 39.89830839 -13.05272465 39.89830839 -10 39 C-8.54708727 36.53744315 -8.54708727 36.53744315 -8 34 C-7.34 34 -6.68 34 -6 34 C-5.01 30.535 -5.01 30.535 -4 27 C-3.34 27 -2.68 27 -2 27 C-1.731875 26.319375 -1.46375 25.63875 -1.1875 24.9375 C0.16053306 21.60289191 1.57536298 18.30256763 3 15 C3.66 15 4.32 15 5 15 C5.433125 13.88625 5.433125 13.88625 5.875 12.75 C6.82302644 10.43260203 7.84845911 8.22082885 9 6 C9.66 6 10.32 6 11 6 C11.87398438 7.60101563 11.87398438 7.60101563 12.765625 9.234375 C18.05027092 18.85740744 23.52659586 28.33596012 29.23925781 37.71191406 C29.73006836 38.51983398 30.22087891 39.32775391 30.7265625 40.16015625 C31.16564941 40.87824463 31.60473633 41.59633301 32.05712891 42.33618164 C33 44 33 44 33 45 C27.06 45 21.12 45 15 45 C13.63875 42.793125 12.2775 40.58625 10.875 38.3125 C10.43913574 37.62712158 10.00327148 36.94174316 9.55419922 36.2355957 C8.5546875 34.55078125 8.5546875 34.55078125 7 31 C7.7578125 28.04296875 7.7578125 28.04296875 9 26 C13.23431576 29.60700972 15.4692099 34.14586161 18 39 C19.65 39 21.3 39 23 39 C22.63648438 38.37432129 22.27296875 37.74864258 21.8984375 37.10400391 C20.26116246 34.28022923 18.63050984 31.45268598 17 28.625 C16.42765625 27.64015625 15.8553125 26.6553125 15.265625 25.640625 C14.72421875 24.69960938 14.1828125 23.75859375 13.625 22.7890625 C13.12226563 21.91975098 12.61953125 21.05043945 12.1015625 20.15478516 C11 18 11 18 11 16 C10.01 16.495 10.01 16.495 9 17 C8.505 18.485 8.505 18.485 8 20 C7.34 20 6.68 20 6 20 C5.34 22.31 4.68 24.62 4 27 C3.34 27 2.68 27 2 27 C1.74476563 27.68449219 1.48953125 28.36898437 1.2265625 29.07421875 C-1.08687828 34.59258546 -4.13734096 39.75179176 -7 45 C-12.61 45 -18.22 45 -24 45 C-22.38748923 40.96872308 -20.719106 36.98520027 -19 33 C-18.34 33 -17.68 33 -17 33 C-16.01 29.535 -16.01 29.535 -15 26 C-14.34 26 -13.68 26 -13 26 C-12.01 22.535 -12.01 22.535 -11 19 C-10.34 19 -9.68 19 -9 19 C-8.74476563 18.32582031 -8.48953125 17.65164062 -8.2265625 16.95703125 C-6.77131195 13.44867244 -5.09052165 10.07321448 -3.375 6.6875 C-3.05015625 6.04232422 -2.7253125 5.39714844 -2.390625 4.73242188 C-1.59558044 3.15402459 -0.79804366 1.57688306 0 0 Z " fill="#36445B" transform="translate(399,16)"/>
<path d="M0 0 C1.12341797 0.17595703 1.12341797 0.17595703 2.26953125 0.35546875 C2.26953125 1.34546875 2.26953125 2.33546875 2.26953125 3.35546875 C1.60953125 3.35546875 0.94953125 3.35546875 0.26953125 3.35546875 C0.04394531 3.99226563 -0.18164062 4.6290625 -0.4140625 5.28515625 C-2.23328007 9.52819781 -4.51648281 13.46844403 -6.79296875 17.48046875 C-7.70288453 19.0859022 -8.61053664 20.69262132 -9.515625 22.30078125 C-9.916604 23.00734863 -10.31758301 23.71391602 -10.73071289 24.44189453 C-11.8607359 26.48123507 -11.8607359 26.48123507 -12.73046875 29.35546875 C-13.39046875 29.35546875 -14.05046875 29.35546875 -14.73046875 29.35546875 C-14.99859375 30.24234375 -15.26671875 31.12921875 -15.54296875 32.04296875 C-16.64757694 35.12424423 -17.95896019 37.6176828 -19.73046875 40.35546875 C-16.26546875 39.86046875 -16.26546875 39.86046875 -12.73046875 39.35546875 C-12.07046875 37.04546875 -11.41046875 34.73546875 -10.73046875 32.35546875 C-10.07046875 32.35546875 -9.41046875 32.35546875 -8.73046875 32.35546875 C-7.74046875 28.89046875 -7.74046875 28.89046875 -6.73046875 25.35546875 C-6.07046875 25.35546875 -5.41046875 25.35546875 -4.73046875 25.35546875 C-4.46234375 24.67484375 -4.19421875 23.99421875 -3.91796875 23.29296875 C-2.56993569 19.95836066 -1.15510577 16.65803638 0.26953125 13.35546875 C0.92953125 13.35546875 1.58953125 13.35546875 2.26953125 13.35546875 C2.55828125 12.57171875 2.84703125 11.78796875 3.14453125 10.98046875 C4.26953125 8.35546875 4.26953125 8.35546875 6.26953125 6.35546875 C11.14194676 13.36040961 15.37545749 20.65140387 19.51953125 28.10546875 C20.1434375 29.21535156 20.76734375 30.32523438 21.41015625 31.46875 C23.97926705 36.06989455 26.30723017 40.44971604 28.26953125 45.35546875 C22.65953125 45.35546875 17.04953125 45.35546875 11.26953125 45.35546875 C9.90828125 43.14859375 8.54703125 40.94171875 7.14453125 38.66796875 C6.70866699 37.98259033 6.27280273 37.29721191 5.82373047 36.59106445 C4.82421875 34.90625 4.82421875 34.90625 3.26953125 31.35546875 C4.02734375 28.3984375 4.02734375 28.3984375 5.26953125 26.35546875 C9.50384701 29.96247847 11.73874115 34.50133036 14.26953125 39.35546875 C15.91953125 39.35546875 17.56953125 39.35546875 19.26953125 39.35546875 C14.97953125 32.09546875 10.68953125 24.83546875 6.26953125 17.35546875 C1.45368387 23.67992628 1.45368387 23.67992628 -2.6875 30.2578125 C-3.15994141 31.08474609 -3.63238281 31.91167969 -4.11914062 32.76367188 C-4.58900391 33.59833984 -5.05886719 34.43300781 -5.54296875 35.29296875 C-6.50653122 36.99031134 -7.4713081 38.6869653 -8.4375 40.3828125 C-8.85491455 41.12265381 -9.2723291 41.86249512 -9.70239258 42.62475586 C-10.73046875 44.35546875 -10.73046875 44.35546875 -11.73046875 45.35546875 C-14.42701729 45.42866496 -17.09738333 45.44789412 -19.79296875 45.41796875 C-20.93088867 45.41120117 -20.93088867 45.41120117 -22.09179688 45.40429688 C-23.97138746 45.39247555 -25.85093774 45.37453953 -27.73046875 45.35546875 C-26.58159762 41.74325231 -25.34714566 38.34771078 -23.60546875 34.98046875 C-23.25226563 34.29210938 -22.8990625 33.60375 -22.53515625 32.89453125 C-22.26960938 32.38664062 -22.0040625 31.87875 -21.73046875 31.35546875 C-21.07046875 31.35546875 -20.41046875 31.35546875 -19.73046875 31.35546875 C-18.74046875 27.89046875 -18.74046875 27.89046875 -17.73046875 24.35546875 C-17.07046875 24.35546875 -16.41046875 24.35546875 -15.73046875 24.35546875 C-14.74046875 20.89046875 -14.74046875 20.89046875 -13.73046875 17.35546875 C-13.07046875 17.35546875 -12.41046875 17.35546875 -11.73046875 17.35546875 C-11.46878906 16.66066406 -11.20710937 15.96585938 -10.9375 15.25 C-9.60681966 12.05895102 -8.08580794 9.07170556 -6.41796875 6.04296875 C-5.84433594 4.97433594 -5.27070312 3.90570312 -4.6796875 2.8046875 C-2.73046875 0.35546875 -2.73046875 0.35546875 0 0 Z " fill="#36445B" transform="translate(528.73046875,15.64453125)"/>
</svg>
