<?xml version="1.0" encoding="UTF-8"?>
<svg version="1.1" xmlns="http://www.w3.org/2000/svg" width="178" height="178">
<path d="M0 0 C58.74 0 117.48 0 178 0 C178 58.74 178 117.48 178 178 C119.26 178 60.52 178 0 178 C0 119.26 0 60.52 0 0 Z " fill="#FDFEFE" transform="translate(0,0)"/>
<path d="M0 0 C3 1 3 1 3.9831543 2.58227539 C4.26070557 3.24735107 4.53825684 3.91242676 4.82421875 4.59765625 C5.13037109 5.31630859 5.43652344 6.03496094 5.75195312 6.77539062 C6.21504883 7.90750977 6.21504883 7.90750977 6.6875 9.0625 C7.00783203 9.82111328 7.32816406 10.57972656 7.65820312 11.36132812 C8.44850702 13.23682542 9.22552197 15.1179123 10 17 C11.27617188 17.09796875 12.55234375 17.1959375 13.8671875 17.296875 C15.53654733 17.44692982 17.20581383 17.59802554 18.875 17.75 C20.13763672 17.8428125 20.13763672 17.8428125 21.42578125 17.9375 C22.63427734 18.05351563 22.63427734 18.05351563 23.8671875 18.171875 C24.61081543 18.2347168 25.35444336 18.29755859 26.12060547 18.36230469 C28 19 28 19 29.25830078 21.05175781 C29.50306152 21.69467773 29.74782227 22.33759766 30 23 C29.04996094 23.76183594 28.09992188 24.52367188 27.12109375 25.30859375 C20.37015439 30.49232368 20.37015439 30.49232368 16.2890625 37.58984375 C16.57042683 39.94124569 17.09114106 41.8169991 18 44 C20.28975265 50.61484099 20.28975265 50.61484099 19 55 C14.55795924 54.44677881 11.81226433 52.72094597 8.125 50.25 C3.54401565 47.33111857 3.54401565 47.33111857 -1.6875 47.75 C-2.81612226 48.46266811 -3.91848981 49.2176831 -5 50 C-6.57474061 50.91085334 -8.15853605 51.80619171 -9.75 52.6875 C-10.48734375 53.12449219 -11.2246875 53.56148437 -11.984375 54.01171875 C-14 55 -14 55 -17 55 C-17.19443166 49.45869772 -16.58706301 45.35633766 -15 40 C-14.37430738 37.09866069 -14.37430738 37.09866069 -15 34 C-16.88648318 31.73983644 -19.14510516 30.06275968 -21.5 28.3125 C-23.74661054 26.60068552 -25.86993042 24.86381088 -28 23 C-28 22.01 -28 21.02 -28 20 C-25.8216544 18.9108272 -24.2796036 18.71967644 -21.8671875 18.46484375 C-21.06152344 18.37783203 -20.25585938 18.29082031 -19.42578125 18.20117188 C-18.58402344 18.11416016 -17.74226563 18.02714844 -16.875 17.9375 C-16.02550781 17.84662109 -15.17601563 17.75574219 -14.30078125 17.66210938 C-12.2008855 17.4379632 -10.10048707 17.21853552 -8 17 C-7.25943359 15.28490234 -7.25943359 15.28490234 -6.50390625 13.53515625 C-5.85689488 12.044217 -5.2097527 10.5533345 -4.5625 9.0625 C-4.23701172 8.30775391 -3.91152344 7.55300781 -3.57617188 6.77539062 C-1.11328125 1.11328125 -1.11328125 1.11328125 0 0 Z " fill="#334159" transform="translate(88,15)"/>
<path d="M0 0 C0.66 0 1.32 0 2 0 C3.16004985 2.4858211 3.97591671 4.63272981 4.15625 7.3828125 C4.40003959 10.29958087 4.70069959 12.3622898 6 15 C9.04675501 16.82288171 11.96306479 17.90640433 15.34765625 18.96484375 C16.22292969 19.30644531 17.09820312 19.64804688 18 20 C18.495 21.485 18.495 21.485 19 23 C18.07316406 23.33128906 17.14632812 23.66257812 16.19140625 24.00390625 C12.12328423 25.75114057 9.36106448 27.10008421 6 30 C4.53659093 35.12719582 4.58536208 39.71846457 5 45 C1.10590404 44.46466973 -0.31016424 42.80033753 -2.8125 39.875 C-4.82192284 37.67637686 -4.82192284 37.67637686 -7 36 C-10.76952126 35.72735773 -10.76952126 35.72735773 -14 37 C-17.47325181 38.1577506 -20.36067448 38.06866652 -24 38 C-23.05659125 34.87949413 -22.15875925 32.244245 -20.375 29.5 C-18.56583445 26.21060809 -18.3553727 24.72451328 -19 21 C-20.47457521 18.57153291 -22.06381381 16.31077506 -23.78515625 14.05078125 C-24.18605469 13.37402344 -24.58695312 12.69726562 -25 12 C-24.67 11.01 -24.34 10.02 -24 9 C-22.92621094 9.17660156 -21.85242188 9.35320313 -20.74609375 9.53515625 C-12.66894897 10.89139416 -12.66894897 10.89139416 -5.4140625 8.09765625 C-3.69565178 5.80281662 -2.29562107 3.55327523 -1 1 C-0.67 0.67 -0.34 0.34 0 0 Z " fill="#334159" transform="translate(145,48)"/>
<path d="M0 0 C1.828125 0.2109375 1.828125 0.2109375 4 1 C4.9741453 2.50600625 5.88432224 4.0541353 6.75 5.625 C8.5400836 8.12637509 9.76018408 9.78699198 12.88427734 10.32373047 C17.64828422 10.42979167 22.30851471 9.77158882 27 9 C26.47035204 12.56142594 25.75172434 14.68812237 23.4375 17.4375 C21.5499484 19.95241701 21.01396785 20.90022967 20.5625 24.125 C21.0030948 27.02033727 21.75559002 29.35562879 23 32 C23.66 32 24.32 32 25 32 C25.495 34.97 25.495 34.97 26 38 C24.66658348 37.85492922 23.33327236 37.7088897 22 37.5625 C21.17757812 37.48257813 20.35515625 37.40265625 19.5078125 37.3203125 C17 37 17 37 14.8671875 36.4296875 C12.58990656 35.77706281 12.58990656 35.77706281 9 36 C6.87497545 37.86915425 5.28950253 39.81996492 3.640625 42.1171875 C1.79093966 44.23992163 0.74301438 44.63028937 -2 45 C-3.50156874 41.99686252 -3.09281204 39.20932478 -3.0625 35.875 C-3.05347656 34.59367187 -3.04445313 33.31234375 -3.03515625 31.9921875 C-3.02355469 31.00476563 -3.01195312 30.01734375 -3 29 C-4.34964844 28.57074219 -4.34964844 28.57074219 -5.7265625 28.1328125 C-8.4267567 27.19837775 -10.84586687 26.18317231 -13.375 24.875 C-14.06335938 24.52179688 -14.75171875 24.16859375 -15.4609375 23.8046875 C-15.96882812 23.53914063 -16.47671875 23.27359375 -17 23 C-16.505 21.515 -16.505 21.515 -16 20 C-13.05859375 18.61328125 -13.05859375 18.61328125 -9.4375 17.3125 C-8.23996094 16.87550781 -7.04242188 16.43851563 -5.80859375 15.98828125 C-4.88175781 15.66214844 -3.95492188 15.33601563 -3 15 C-2.86722656 14.08476563 -2.73445313 13.16953125 -2.59765625 12.2265625 C-2.42105469 11.03804687 -2.24445312 9.84953125 -2.0625 8.625 C-1.88847656 7.44164062 -1.71445312 6.25828125 -1.53515625 5.0390625 C-1 2 -1 2 0 0 Z " fill="#334159" transform="translate(31,48)"/>
<path d="M0 0 C2.75 1.375 2.75 1.375 4.75 3.375 C5.9354686 12.94183049 4.18097166 23.36423693 3.4375 32.94921875 C3.30261804 34.72708959 3.16810267 36.50498828 3.03393555 38.28291321 C2.68247864 42.92731595 2.32609314 47.57132736 1.96862793 52.215271 C1.60367201 56.9681545 1.24345034 61.72139663 0.8828125 66.47460938 C0.17646926 75.7750936 -0.535089 85.07517071 -1.25 94.375 C-3.62588201 90.81117698 -3.74850009 87.95619101 -4.02783203 83.81762695 C-4.08664551 83.04975357 -4.14545898 82.28188019 -4.20605469 81.49073792 C-4.39852321 78.94880963 -4.57831807 76.40615602 -4.7578125 73.86328125 C-4.88879022 72.09306338 -5.02046316 70.32289682 -5.15280151 68.55278015 C-5.42869452 64.83837315 -5.69879682 61.1236072 -5.96435547 57.40844727 C-6.30376613 52.66125992 -6.65331064 47.91489282 -7.00671577 43.16872883 C-7.27871929 39.50993268 -7.54735465 35.85089595 -7.814785 32.19176292 C-7.9426198 30.44274078 -8.07100238 28.69375858 -8.19995499 26.9448185 C-8.38003643 24.48987167 -8.55609869 22.03466943 -8.73095703 19.5793457 C-8.78391937 18.86476196 -8.83688171 18.15017822 -8.89144897 17.41394043 C-9.0322877 15.40233962 -9.14153793 13.38860606 -9.25 11.375 C-9.29089626 10.65070486 -9.33179253 9.92640972 -9.37392807 9.18016624 C-9.43910744 7.24576774 -9.3540127 5.30769948 -9.25 3.375 C-6.01539672 0.14039672 -4.55536808 -0.87603232 0 0 Z " fill="#3B485F" transform="translate(91.25,66.625)"/>
<path d="M0 0 C2.31 0.66 4.62 1.32 7 2 C10.16456012 16.5600194 13.0489796 31.17250218 15.81787109 45.81234741 C16.18928821 47.77077111 16.56363798 49.7286409 16.94091797 51.6859436 C17.47682959 54.47140552 18.00155046 57.25875591 18.5234375 60.046875 C18.68774261 60.89076279 18.85204773 61.73465057 19.02133179 62.60411072 C19.16559601 63.3879866 19.30986023 64.17186249 19.45849609 64.97949219 C19.58775482 65.66211121 19.71701355 66.34473022 19.85018921 67.04803467 C20.01859626 69.24230063 19.63921706 70.90611011 19 73 C18.74307373 72.19369141 18.48614746 71.38738281 18.22143555 70.55664062 C17.25576239 67.52943023 16.28826568 64.50281015 15.31958008 61.4765625 C14.90284695 60.17340631 14.48681499 58.87002566 14.0715332 57.56640625 C11.86584242 50.64409389 9.60442794 43.78220531 7 37 C6.32136945 35.0040278 5.65358081 33.00431449 5 31 C3.14641245 25.39711037 1.23015857 19.85015612 -1.109375 14.4296875 C-1.48578125 13.54539062 -1.8621875 12.66109375 -2.25 11.75 C-2.60578125 10.94046875 -2.9615625 10.1309375 -3.328125 9.296875 C-4.08646833 6.70439897 -4.10887662 5.4569227 -3 3 C-2.01 2.67 -1.02 2.34 0 2 C0 1.34 0 0.68 0 0 Z " fill="#3C4960" transform="translate(42,87)"/>
<path d="M0 0 C2.37179967 1.96286869 2.93588014 3.56218581 3.8125 6.5 C3.44126892 8.86729431 3.44126892 8.86729431 2.55834961 11.34350586 C2.23398422 12.27895737 1.90961884 13.21440887 1.57542419 14.1782074 C1.20893265 15.18029739 0.8424411 16.18238739 0.46484375 17.21484375 C0.09653946 18.26217178 -0.27176483 19.30949982 -0.65122986 20.38856506 C-1.83529254 23.74395218 -3.04223901 27.09057932 -4.25 30.4375 C-5.03732773 32.65636213 -5.82315161 34.87575848 -6.60742188 37.09570312 C-8.4581898 42.32338772 -10.32624245 47.54462902 -12.20343018 52.76287842 C-13.5572681 56.52848418 -14.90196026 60.29732845 -16.24609375 64.06640625 C-16.89316259 65.87762795 -17.54026534 67.68883755 -18.1875 69.5 C-18.5175 69.5 -18.8475 69.5 -19.1875 69.5 C-18.24834989 57.71090264 -15.88248122 46.16367289 -13.68701172 34.55737305 C-13.18249383 31.88364943 -12.69064426 29.20805125 -12.20947266 26.5300293 C-11.51268413 22.65210466 -10.78123646 18.78115116 -10.046875 14.91015625 C-9.83520691 13.71020523 -9.62353882 12.51025421 -9.40545654 11.27394104 C-9.18883362 10.16526169 -8.97221069 9.05658234 -8.74902344 7.91430664 C-8.56772888 6.93853165 -8.38643433 5.96275665 -8.199646 4.95741272 C-6.70389393 1.3258416 -4.0049743 -0.9154227 0 0 Z " fill="#39465D" transform="translate(136.1875,87.5)"/>
</svg>
