<?xml version="1.0" encoding="UTF-8"?>
<svg version="1.1" xmlns="http://www.w3.org/2000/svg" width="956" height="176">
<path d="M0 0 C315.48 0 630.96 0 956 0 C956 58.08 956 116.16 956 176 C640.52 176 325.04 176 0 176 C0 117.92 0 59.84 0 0 Z " fill="#FEFEFE" transform="translate(0,0)"/>
<path d="M0 0 C3 1 3 1 3.9831543 2.58227539 C4.26070557 3.24735107 4.53825684 3.91242676 4.82421875 4.59765625 C5.13037109 5.31630859 5.43652344 6.03496094 5.75195312 6.77539062 C6.21504883 7.90750977 6.21504883 7.90750977 6.6875 9.0625 C7.00783203 9.82111328 7.32816406 10.57972656 7.65820312 11.36132812 C8.44850702 13.23682542 9.22552197 15.1179123 10 17 C11.27617187 17.09796875 12.55234375 17.1959375 13.8671875 17.296875 C15.53654733 17.44692982 17.20581383 17.59802554 18.875 17.75 C20.13763672 17.8428125 20.13763672 17.8428125 21.42578125 17.9375 C22.63427734 18.05351563 22.63427734 18.05351563 23.8671875 18.171875 C24.61081543 18.2347168 25.35444336 18.29755859 26.12060547 18.36230469 C28 19 28 19 29.25830078 21.05175781 C29.50306152 21.69467773 29.74782227 22.33759766 30 23 C29.04996094 23.76183594 28.09992188 24.52367188 27.12109375 25.30859375 C20.37015439 30.49232368 20.37015439 30.49232368 16.2890625 37.58984375 C16.57042683 39.94124569 17.09114106 41.8169991 18 44 C20.28975265 50.61484099 20.28975265 50.61484099 19 55 C14.55795924 54.44677881 11.81226433 52.72094597 8.125 50.25 C3.54401565 47.33111857 3.54401565 47.33111857 -1.6875 47.75 C-2.81612226 48.46266811 -3.91848981 49.2176831 -5 50 C-6.57474061 50.91085334 -8.15853605 51.80619171 -9.75 52.6875 C-10.48734375 53.12449219 -11.2246875 53.56148437 -11.984375 54.01171875 C-14 55 -14 55 -17 55 C-17.19443166 49.45869772 -16.58706301 45.35633766 -15 40 C-14.37430738 37.09866069 -14.37430738 37.09866069 -15 34 C-16.88648318 31.73983644 -19.14510516 30.06275968 -21.5 28.3125 C-23.74661054 26.60068552 -25.86993042 24.86381088 -28 23 C-28 22.01 -28 21.02 -28 20 C-25.8216544 18.9108272 -24.2796036 18.71967644 -21.8671875 18.46484375 C-21.06152344 18.37783203 -20.25585938 18.29082031 -19.42578125 18.20117188 C-18.58402344 18.11416016 -17.74226563 18.02714844 -16.875 17.9375 C-16.02550781 17.84662109 -15.17601563 17.75574219 -14.30078125 17.66210938 C-12.2008855 17.4379632 -10.10048707 17.21853552 -8 17 C-7.25943359 15.28490234 -7.25943359 15.28490234 -6.50390625 13.53515625 C-5.85689488 12.044217 -5.2097527 10.5533345 -4.5625 9.0625 C-4.23701172 8.30775391 -3.91152344 7.55300781 -3.57617188 6.77539062 C-1.11328125 1.11328125 -1.11328125 1.11328125 0 0 Z " fill="#334159" transform="translate(122,13)"/>
<path d="M0 0 C16.17 0 32.34 0 49 0 C49 4.95 49 9.9 49 15 C37.78 15 26.56 15 15 15 C15 16.65 15 18.3 15 20 C23.58 20 32.16 20 41 20 C41 21.65 41 23.3 41 25 C30.77 25 20.54 25 10 25 C10 20.05 10 15.1 10 10 C21.55 10 33.1 10 45 10 C45 8.35 45 6.7 45 5 C31.8 5 18.6 5 5 5 C5 16.55 5 28.1 5 40 C17.87 40 30.74 40 44 40 C44 38.35 44 36.7 44 35 C32.78 35 21.56 35 10 35 C10 33.35 10 31.7 10 30 C22.87 30 35.74 30 49 30 C49 34.95 49 39.9 49 45 C32.83 45 16.66 45 0 45 C0 30.15 0 15.3 0 0 Z " fill="#36445B" transform="translate(368,64)"/>
<path d="M0 0 C16.17 0 32.34 0 49 0 C49 4.95 49 9.9 49 15 C37.78 15 26.56 15 15 15 C15 16.65 15 18.3 15 20 C23.25 20 31.5 20 40 20 C40 21.65 40 23.3 40 25 C30.1 25 20.2 25 10 25 C10 20.05 10 15.1 10 10 C21.55 10 33.1 10 45 10 C45 8.35 45 6.7 45 5 C31.8 5 18.6 5 5 5 C5 16.55 5 28.1 5 40 C17.87 40 30.74 40 44 40 C44 38.35 44 36.7 44 35 C32.78 35 21.56 35 10 35 C10 33.35 10 31.7 10 30 C22.87 30 35.74 30 49 30 C49 34.95 49 39.9 49 45 C32.83 45 16.66 45 0 45 C0 30.15 0 15.3 0 0 Z " fill="#35435A" transform="translate(245,64)"/>
<path d="M0 0 C5.56835907 -0.12408068 11.13590436 -0.21456522 16.70532227 -0.2746582 C18.59771757 -0.29972197 20.49001683 -0.33378253 22.38208008 -0.37719727 C25.11043043 -0.4382101 27.8374955 -0.46629069 30.56640625 -0.48828125 C31.82463951 -0.52699089 31.82463951 -0.52699089 33.10829163 -0.56648254 C39.30592619 -0.56940715 42.32388041 0.91367497 47 5 C49.14798109 8.6422288 49.57326576 11.82334945 49 16 C47.53775775 18.81749117 45.8374904 21.4143885 44 24 C44.66 24 45.32 24 46 24 C48.39662675 28.19409682 49.70668044 31.1541913 49 36 C46.88264003 39.85661994 44.87737123 42.88223437 41 45 C37.80495236 45.41517095 34.63888781 45.34843511 31.421875 45.29296875 C30.03201385 45.28660149 30.03201385 45.28660149 28.61407471 45.28010559 C25.65908566 45.26333322 22.70478239 45.22568355 19.75 45.1875 C17.74480153 45.1724513 15.73959235 45.15876322 13.734375 45.14648438 C8.82244088 45.1159881 3.91198668 45.05726409 -1 45 C-1 36.75 -1 28.5 -1 20 C3.95 20 8.9 20 14 20 C14 23.3 14 26.6 14 30 C21.92 30 29.84 30 38 30 C38 31.65 38 33.3 38 35 C28.76 35 19.52 35 10 35 C10 31.7 10 28.4 10 25 C8.02 25 6.04 25 4 25 C4 29.95 4 34.9 4 40 C9.07250914 39.93118026 14.14418939 39.84324306 19.21606445 39.73754883 C20.94155693 39.70428828 22.66715849 39.67625981 24.39282227 39.65356445 C26.87303166 39.62003847 29.3522403 39.56772594 31.83203125 39.51171875 C32.98998955 39.50213387 32.98998955 39.50213387 34.17134094 39.49235535 C38.34184211 39.4007385 38.34184211 39.4007385 41.99926758 37.59130859 C43.31447219 35.49994395 43.22863459 34.36307055 42.875 31.9375 C42.78992188 31.24527344 42.70484375 30.55304688 42.6171875 29.83984375 C42.07799588 27.60968515 42.07799588 27.60968515 39 26 C36.77868577 25.6349209 36.77868577 25.6349209 34.33203125 25.5859375 C33.43935547 25.54726562 32.54667969 25.50859375 31.62695312 25.46875 C30.69818359 25.4378125 29.76941406 25.406875 28.8125 25.375 C27.87212891 25.33632812 26.93175781 25.29765625 25.96289062 25.2578125 C23.6421229 25.16356813 21.32136252 25.07795975 19 25 C19 23.35 19 21.7 19 20 C19.59014893 19.98018066 20.18029785 19.96036133 20.78833008 19.93994141 C23.46350096 19.84465341 26.13789498 19.73499061 28.8125 19.625 C30.2056543 19.57859375 30.2056543 19.57859375 31.62695312 19.53125 C32.51962891 19.49257812 33.41230469 19.45390625 34.33203125 19.4140625 C35.15421143 19.3826416 35.9763916 19.3512207 36.82348633 19.31884766 C39.28952937 19.11626378 39.28952937 19.11626378 42 17 C43.05661565 13.6037354 43.25884946 11.70007159 42.01831055 8.3449707 C40.1046613 5.62384617 40.1046613 5.62384617 36.35473633 5.34057617 C34.84764441 5.29948927 33.33966357 5.28528844 31.83203125 5.29296875 C31.03721848 5.27784744 30.2424057 5.26272614 29.42350769 5.24714661 C26.88621866 5.20417658 24.35011704 5.1954233 21.8125 5.1875 C20.0917651 5.16436271 18.37105859 5.13899897 16.65039062 5.11132812 C12.43348838 5.04838464 8.21733072 5.01612202 4 5 C4 6.65 4 8.3 4 10 C14.89 10 25.78 10 37 10 C37.495 12.475 37.495 12.475 38 15 C25.46 15 12.92 15 0 15 C0 10.05 0 5.1 0 0 Z " fill="#38455C" transform="translate(544,64)"/>
<path d="M0 0 C16 0 16 0 21 4.375 C22.37242271 6.22158027 23.70542642 8.09803206 25 10 C26.46641899 11.86426484 27.94511023 13.7189597 29.4375 15.5625 C30.07558594 16.38878906 30.71367187 17.21507813 31.37109375 18.06640625 C32.86321702 20.09657508 32.86321702 20.09657508 35 21 C35 14.07 35 7.14 35 0 C39.95 0 44.9 0 50 0 C50 14.85 50 29.7 50 45 C34 45 34 45 29.125 40.1875 C27.74204699 38.13032421 26.36732327 36.06759724 25 34 C23.2641321 32.01060743 21.4931884 30.05124234 19.6875 28.125 C11.05306667 18.80926678 11.05306667 18.80926678 10.75 14.1875 C10.8325 13.135625 10.915 12.08375 11 11 C14.61345275 13.71797231 17.3991616 16.5103766 20.1875 20.0625 C24.2760832 25.17494689 28.57734155 29.99445533 33.03125 34.78515625 C35 37 35 37 36 39 C38.97 39.33 41.94 39.66 45 40 C45 28.45 45 16.9 45 5 C43.35 5 41.7 5 40 5 C40 14.9 40 24.8 40 35 C36.34080862 31.34080862 32.76331765 27.66718867 29.25 23.875 C28.72631836 23.31458008 28.20263672 22.75416016 27.66308594 22.17675781 C25.14351779 19.4511969 22.72648178 16.71385171 20.5 13.7421875 C19.7575 12.75476563 19.015 11.76734375 18.25 10.75 C17.61578125 9.85796875 16.9815625 8.9659375 16.328125 8.046875 C13.50352931 5.17685022 13.50352931 5.17685022 6 5 C6 16.55 6 28.1 6 40 C7.65 40 9.3 40 11 40 C11 35.38 11 30.76 11 26 C16 30 16 30 16.48828125 33.671875 C16.45992555 35.03221671 16.39529407 36.39188411 16.3125 37.75 C16.209375 40.1425 16.10625 42.535 16 45 C10.72 45 5.44 45 0 45 C0 30.15 0 15.3 0 0 Z " fill="#3A475E" transform="translate(426,64)"/>
<path d="M0 0 C5.72911572 -0.09913284 11.45772839 -0.1715934 17.1875 -0.21972656 C19.13517966 -0.23979906 21.08279937 -0.26706332 23.03027344 -0.30175781 C25.83543721 -0.35046852 28.63980187 -0.37301241 31.4453125 -0.390625 C32.74409836 -0.42159271 32.74409836 -0.42159271 34.06912231 -0.45318604 C39.5396269 -0.45520063 42.68564722 0.31010402 47 4 C49.63686283 8.04318967 50.78414404 11.19711778 50 16 C47.78161333 20.19908904 45.51936783 23.28930456 41 25 C38.20915781 25.16858166 35.52228007 25.23284241 32.734375 25.1953125 C31.94097717 25.1924826 31.14757935 25.18965271 30.33013916 25.18673706 C27.80327083 25.17556779 25.27676068 25.15046944 22.75 25.125 C21.0338593 25.11496598 19.31771302 25.10584087 17.6015625 25.09765625 C13.40090426 25.07563914 9.2005128 25.04113187 5 25 C5 29.95 5 34.9 5 40 C6.65 40 8.3 40 10 40 C10 36.7 10 33.4 10 30 C16.6 30 23.2 30 30 30 C31.65 32.97 33.3 35.94 35 39 C36.65 39 38.3 39 40 39 C39.34 37.88625 38.68 36.7725 38 35.625 C36 32.25 36 32.25 36 30 C38.23046875 29.6015625 38.23046875 29.6015625 41 30 C42.7304151 32.14414436 43.99272175 34.00090175 45.3125 36.375 C45.67150391 36.97828125 46.03050781 37.5815625 46.40039062 38.203125 C49 42.65959821 49 42.65959821 49 45 C43.39 45 37.78 45 32 45 C31.4225 43.535625 30.845 42.07125 30.25 40.5625 C29.00763166 38.00339994 29.00763166 38.00339994 27 36 C22.97349957 34.90043551 19.15494656 34.83433227 15 35 C15 38.3 15 41.6 15 45 C10.05 45 5.1 45 0 45 C0 36.75 0 28.5 0 20 C4.27904297 19.92652344 4.27904297 19.92652344 8.64453125 19.8515625 C11.40475755 19.79756591 14.16489641 19.74025323 16.92504883 19.68261719 C18.84457904 19.64431423 20.76418135 19.60946367 22.68383789 19.578125 C25.4418313 19.53250298 28.19932777 19.4745042 30.95703125 19.4140625 C32.24623222 19.39673569 32.24623222 19.39673569 33.56147766 19.37905884 C34.36208115 19.35918915 35.16268463 19.33931946 35.98754883 19.31884766 C36.6914827 19.30552399 37.39541656 19.29220032 38.12068176 19.2784729 C40.33097464 19.08755815 40.33097464 19.08755815 43 17 C43.88757579 13.85934722 44.26479783 11.81645997 43.25 8.6875 C42.01833257 6.68716985 42.01833257 6.68716985 39 6 C36.41669771 5.84677641 33.85507761 5.74293111 31.26953125 5.68359375 C30.51911057 5.66281265 29.76868988 5.64203156 28.99552917 5.62062073 C26.60127816 5.55530074 24.20691861 5.49632208 21.8125 5.4375 C20.18813987 5.39429807 18.56379067 5.35068324 16.93945312 5.30664062 C12.95974629 5.19963737 8.97993042 5.09832063 5 5 C5 6.65 5 8.3 5 10 C15.89 10 26.78 10 38 10 C38.495 11.98 38.495 11.98 39 14 C38 15 38 15 34.39819336 15.11352539 C32.79540144 15.11336625 31.1926044 15.10767063 29.58984375 15.09765625 C28.74780899 15.0962413 27.90577423 15.09482635 27.03822327 15.09336853 C24.33794665 15.08775263 21.63775172 15.07519748 18.9375 15.0625 C17.11132932 15.05748705 15.28515734 15.05292379 13.45898438 15.04882812 C8.97262458 15.03777804 4.48632616 15.02050279 0 15 C0 10.05 0 5.1 0 0 Z " fill="#35435A" transform="translate(856,64)"/>
<path d="M0 0 C16.17 0 32.34 0 49 0 C45.81168576 5.73896564 42.80307216 10.92708999 38.9375 16.125 C38.08908 17.27095167 37.24400597 18.41938834 36.40234375 19.5703125 C36.03616943 20.06289551 35.66999512 20.55547852 35.29272461 21.06298828 C33.37080316 23.94278522 31.71774539 26.99394557 30 30 C36.27 30 42.54 30 49 30 C49 34.95 49 39.9 49 45 C33.16 45 17.32 45 1 45 C6.57193923 34.97050938 6.57193923 34.97050938 9.6875 30.875 C12.11626125 27.64736454 14.40589279 24.39961224 16.52734375 20.96484375 C16.95893799 20.27729004 17.39053223 19.58973633 17.83520508 18.88134766 C18.68189674 17.52324334 19.5118507 16.15453058 20.32299805 14.77490234 C21.5078125 12.89453125 21.5078125 12.89453125 24 10 C27.3046875 9.57421875 27.3046875 9.57421875 30 10 C26.71081298 15.95777272 22.97733557 21.47637829 19.06640625 27.0390625 C18.60105469 27.70679687 18.13570312 28.37453125 17.65625 29.0625 C17.03459961 29.94615234 17.03459961 29.94615234 16.40039062 30.84765625 C14.4685646 33.81679471 12.75746216 36.92444123 11 40 C21.89 40 32.78 40 44 40 C44 38.35 44 36.7 44 35 C36.08 35 28.16 35 20 35 C22.41416955 30.77520329 24.64139394 26.92676523 27.41796875 23.01171875 C28.03220703 22.14095703 28.64644531 21.27019531 29.27929688 20.37304688 C29.90900391 19.48681641 30.53871094 18.60058594 31.1875 17.6875 C32.45298353 15.90056095 33.71736355 14.11283973 34.98046875 12.32421875 C35.53629639 11.54135498 36.09212402 10.75849121 36.66479492 9.9519043 C38.0341437 8.04494043 38.0341437 8.04494043 39 6 C27.78 5.67 16.56 5.34 5 5 C5 6.65 5 8.3 5 10 C9.29 10 13.58 10 18 10 C17.01 11.65 16.02 13.3 15 15 C12.16963444 15.38666196 10.10334884 15.48058758 7.3125 15.3125 C4.899375 15.209375 2.48625 15.10625 0 15 C0 10.05 0 5.1 0 0 Z " fill="#35435A" transform="translate(669,64)"/>
<path d="M0 0 C0.66 0 1.32 0 2 0 C3.16004985 2.4858211 3.97591671 4.63272981 4.15625 7.3828125 C4.40003959 10.29958087 4.70069959 12.3622898 6 15 C9.04675501 16.82288171 11.96306479 17.90640433 15.34765625 18.96484375 C16.22292969 19.30644531 17.09820312 19.64804688 18 20 C18.495 21.485 18.495 21.485 19 23 C18.07316406 23.33128906 17.14632812 23.66257812 16.19140625 24.00390625 C12.12328423 25.75114057 9.36106448 27.10008421 6 30 C4.53659093 35.12719582 4.58536208 39.71846457 5 45 C1.10590404 44.46466973 -0.31016424 42.80033753 -2.8125 39.875 C-4.82192284 37.67637686 -4.82192284 37.67637686 -7 36 C-10.76952126 35.72735773 -10.76952126 35.72735773 -14 37 C-17.47325181 38.1577506 -20.36067448 38.06866652 -24 38 C-23.05659125 34.87949413 -22.15875925 32.244245 -20.375 29.5 C-18.56583445 26.21060809 -18.3553727 24.72451328 -19 21 C-20.47457521 18.57153291 -22.06381381 16.31077506 -23.78515625 14.05078125 C-24.18605469 13.37402344 -24.58695313 12.69726562 -25 12 C-24.67 11.01 -24.34 10.02 -24 9 C-22.92621094 9.17660156 -21.85242188 9.35320313 -20.74609375 9.53515625 C-12.66894897 10.89139416 -12.66894897 10.89139416 -5.4140625 8.09765625 C-3.69565178 5.80281662 -2.29562107 3.55327523 -1 1 C-0.67 0.67 -0.34 0.34 0 0 Z " fill="#334159" transform="translate(179,46)"/>
<path d="M0 0 C1.828125 0.2109375 1.828125 0.2109375 4 1 C4.9741453 2.50600625 5.88432224 4.0541353 6.75 5.625 C8.5400836 8.12637509 9.76018408 9.78699198 12.88427734 10.32373047 C17.64828422 10.42979167 22.30851471 9.77158882 27 9 C26.47035204 12.56142594 25.75172434 14.68812237 23.4375 17.4375 C21.5499484 19.95241701 21.01396785 20.90022967 20.5625 24.125 C21.0030948 27.02033727 21.75559002 29.35562879 23 32 C23.66 32 24.32 32 25 32 C25.495 34.97 25.495 34.97 26 38 C24.66658348 37.85492922 23.33327236 37.7088897 22 37.5625 C21.17757812 37.48257813 20.35515625 37.40265625 19.5078125 37.3203125 C17 37 17 37 14.8671875 36.4296875 C12.58990656 35.77706281 12.58990656 35.77706281 9 36 C6.87497545 37.86915425 5.28950253 39.81996492 3.640625 42.1171875 C1.79093966 44.23992163 0.74301438 44.63028937 -2 45 C-3.50156874 41.99686252 -3.09281204 39.20932478 -3.0625 35.875 C-3.05347656 34.59367187 -3.04445313 33.31234375 -3.03515625 31.9921875 C-3.02355469 31.00476563 -3.01195312 30.01734375 -3 29 C-4.34964844 28.57074219 -4.34964844 28.57074219 -5.7265625 28.1328125 C-8.4267567 27.19837775 -10.84586687 26.18317231 -13.375 24.875 C-14.06335937 24.52179688 -14.75171875 24.16859375 -15.4609375 23.8046875 C-15.96882813 23.53914063 -16.47671875 23.27359375 -17 23 C-16.505 21.515 -16.505 21.515 -16 20 C-13.05859375 18.61328125 -13.05859375 18.61328125 -9.4375 17.3125 C-8.23996094 16.87550781 -7.04242188 16.43851563 -5.80859375 15.98828125 C-4.88175781 15.66214844 -3.95492187 15.33601563 -3 15 C-2.86722656 14.08476563 -2.73445313 13.16953125 -2.59765625 12.2265625 C-2.42105469 11.03804687 -2.24445312 9.84953125 -2.0625 8.625 C-1.88847656 7.44164062 -1.71445312 6.25828125 -1.53515625 5.0390625 C-1 2 -1 2 0 0 Z " fill="#334159" transform="translate(65,46)"/>
<path d="M0 0 C14.42285471 -1.91758409 14.42285471 -1.91758409 18.60644531 1.1953125 C21.65239964 4.66116863 23.60943088 8.60683162 25 13 C24.6796875 15.92578125 24.6796875 15.92578125 24 18 C23.01 18 22.02 18 21 18 C19.09226183 15.00277155 17.53345618 11.88380144 15.9140625 8.72265625 C14.25334759 5.77958938 14.25334759 5.77958938 11.2734375 5.12109375 C10.52320313 5.08113281 9.77296875 5.04117188 9 5 C10.57545413 7.90018598 12.16175303 10.79430293 13.75 13.6875 C14.1934375 14.50412109 14.636875 15.32074219 15.09375 16.16210938 C17.43784446 20.41939858 19.78900709 24.31636093 23 28 C23.45375 27.175 23.9075 26.35 24.375 25.5 C24.91125 24.675 25.4475 23.85 26 23 C26.66 23 27.32 23 28 23 C28.25652344 22.13761719 28.51304687 21.27523437 28.77734375 20.38671875 C30.04110938 16.88612832 31.63359063 13.98976407 33.5625 10.8125 C36.13063318 6.56826372 36.13063318 6.56826372 38 2 C38.66 2 39.32 2 40 2 C40 1.34 40 0.68 40 0 C45.61 0 51.22 0 57 0 C51.09054977 11.93708946 44.84465335 23.58614798 38.1875 35.125 C37.69475586 35.97989014 37.20201172 36.83478027 36.69433594 37.71557617 C36.23188477 38.51326416 35.76943359 39.31095215 35.29296875 40.1328125 C34.8755542 40.85355957 34.45813965 41.57430664 34.02807617 42.31689453 C33 44 33 44 32 45 C30.00041636 45.04080783 27.99954746 45.04254356 26 45 C27.63777761 40.40710191 30.00474798 36.41241677 32.5 32.25 C33.39333593 30.74615717 34.28656163 29.24224885 35.1796875 27.73828125 C35.64084961 26.96436035 36.10201172 26.19043945 36.57714844 25.39306641 C38.94139729 21.41668219 41.28212033 17.42649845 43.625 13.4375 C44.47124523 11.99863384 45.3175892 10.55982575 46.1640625 9.12109375 C47.07285156 7.57615234 47.07285156 7.57615234 48 6 C45.525 5.505 45.525 5.505 43 5 C43 5.66 43 6.32 43 7 C42.34 7 41.68 7 41 7 C40.72075684 7.72525879 40.44151367 8.45051758 40.15380859 9.19775391 C39.06896303 11.83251003 37.86329168 14.3145288 36.5390625 16.8359375 C36.06726563 17.73570313 35.59546875 18.63546875 35.109375 19.5625 C34.61953125 20.490625 34.1296875 21.41875 33.625 22.375 C32.90183594 23.75558594 32.90183594 23.75558594 32.1640625 25.1640625 C29.53431972 30.16629061 26.84003654 35.11406036 24 40 C23.34 40 22.68 40 22 40 C21.61779297 39.31075439 21.23558594 38.62150879 20.84179688 37.91137695 C11.41306978 20.82129061 11.41306978 20.82129061 1.2578125 4.16015625 C0 2 0 2 0 0 Z " fill="#39475E" transform="translate(304,64)"/>
<path d="M0 0 C2.6875 -0.3125 2.6875 -0.3125 5 0 C5 0.99 5 1.98 5 3 C4.34 3 3.68 3 3 3 C2.34 5.31 1.68 7.62 1 10 C0.34 10 -0.32 10 -1 10 C-1.38285156 11.01126953 -1.38285156 11.01126953 -1.7734375 12.04296875 C-3.22868805 15.55132756 -4.90947835 18.92678552 -6.625 22.3125 C-6.94984375 22.95767578 -7.2746875 23.60285156 -7.609375 24.26757812 C-8.40441956 25.84597541 -9.20195634 27.42311694 -10 29 C-10.66 29 -11.32 29 -12 29 C-12.28875 29.9075 -12.5775 30.815 -12.875 31.75 C-13.76531776 34.32202908 -14.71494413 36.61346766 -16 39 C-13.58414426 38.96906827 -13.58414426 38.96906827 -11 38 C-9.14083176 35.03292954 -9.14083176 35.03292954 -8 32 C-7.34 32 -6.68 32 -6 32 C-5.01 28.535 -5.01 28.535 -4 25 C-3.34 25 -2.68 25 -2 25 C-1.731875 24.319375 -1.46375 23.63875 -1.1875 22.9375 C0.16053306 19.60289191 1.57536298 16.30256763 3 13 C3.66 13 4.32 13 5 13 C5.66 10.69 6.32 8.38 7 6 C10.20458064 7.34161858 11.61209839 8.46689638 13.2265625 11.53515625 C13.61408691 12.25445312 14.00161133 12.97375 14.40087891 13.71484375 C15.00681885 14.87693359 15.00681885 14.87693359 15.625 16.0625 C16.49784434 17.68996005 17.37290665 19.31623219 18.25 20.94140625 C18.92289063 22.19268311 18.92289063 22.19268311 19.609375 23.46923828 C22.25690527 28.28740871 25.10508102 32.9890849 27.95166016 37.69165039 C31 42.78838131 31 42.78838131 31 45 C25.39 45 19.78 45 14 45 C12.63875 42.793125 11.2775 40.58625 9.875 38.3125 C9.43913574 37.62712158 9.00327148 36.94174316 8.55419922 36.2355957 C7.5546875 34.55078125 7.5546875 34.55078125 6 31 C6.7578125 28.04296875 6.7578125 28.04296875 8 26 C12.23431576 29.60700972 14.4692099 34.14586161 17 39 C18.65 39 20.3 39 22 39 C17.71 31.74 13.42 24.48 9 17 C4.15470898 23.3080467 4.15470898 23.3080467 0.26171875 29.90234375 C-0.16560547 30.72927734 -0.59292969 31.55621094 -1.03320312 32.40820312 C-1.45537109 33.24287109 -1.87753906 34.07753906 -2.3125 34.9375 C-3.18212996 36.63486534 -4.05314737 38.3315208 -4.92578125 40.02734375 C-5.30130127 40.76718506 -5.67682129 41.50702637 -6.0637207 42.26928711 C-7 44 -7 44 -8 45 C-10.86267567 45.07325168 -13.700719 45.09238205 -16.5625 45.0625 C-17.36880859 45.05798828 -18.17511719 45.05347656 -19.00585938 45.04882812 C-21.00393756 45.03700518 -23.00197783 45.01906914 -25 45 C-24.2623722 40.46666251 -22.62548521 37.77413498 -20 34 C-19.67 33.01 -19.34 32.02 -19 31 C-18.34 31 -17.68 31 -17 31 C-16.01 27.535 -16.01 27.535 -15 24 C-14.34 24 -13.68 24 -13 24 C-12.01 20.535 -12.01 20.535 -11 17 C-10.34 17 -9.68 17 -9 17 C-8.34 14.69 -7.68 12.38 -7 10 C-6.34 10 -5.68 10 -5 10 C-4.731875 9.278125 -4.46375 8.55625 -4.1875 7.8125 C-2.97381121 4.93797393 -1.91016194 2.47613585 0 0 Z " fill="#39465D" transform="translate(754,64)"/>
<path d="M0 0 C1.98 0 3.96 0 6 0 C5.67 1.65 5.34 3.3 5 5 C4.34 5 3.68 5 3 5 C2.34 7.31 1.68 9.62 1 12 C0.34 12 -0.32 12 -1 12 C-1.226875 12.63808594 -1.45375 13.27617188 -1.6875 13.93359375 C-3.492341 18.15026097 -5.74559539 22.07220384 -8 26.0625 C-8.8965804 27.65713228 -9.79243915 29.25217056 -10.6875 30.84765625 C-11.28111328 31.8996521 -11.28111328 31.8996521 -11.88671875 32.97290039 C-12.97722743 34.95853495 -14.00080885 36.96711367 -15 39 C-13.35 39.33 -11.7 39.66 -10 40 C-9.34 38.02 -8.68 36.04 -8 34 C-7.34 34 -6.68 34 -6 34 C-5.01 30.535 -5.01 30.535 -4 27 C-3.34 27 -2.68 27 -2 27 C-1.731875 26.319375 -1.46375 25.63875 -1.1875 24.9375 C0.16053306 21.60289191 1.57536298 18.30256763 3 15 C3.66 15 4.32 15 5 15 C5.66 12.69 6.32 10.38 7 8 C7.66 8 8.32 8 9 8 C9 7.34 9 6.68 9 6 C9.66 6 10.32 6 11 6 C11.87398437 7.60101563 11.87398437 7.60101563 12.765625 9.234375 C18.05027092 18.85740744 23.52659586 28.33596012 29.23925781 37.71191406 C29.73006836 38.51983398 30.22087891 39.32775391 30.7265625 40.16015625 C31.16564941 40.87824463 31.60473633 41.59633301 32.05712891 42.33618164 C33 44 33 44 33 45 C27.06 45 21.12 45 15 45 C13.63875 42.793125 12.2775 40.58625 10.875 38.3125 C10.43913574 37.62712158 10.00327148 36.94174316 9.55419922 36.2355957 C8.5546875 34.55078125 8.5546875 34.55078125 7 31 C7.7578125 28.04296875 7.7578125 28.04296875 9 26 C12.84762566 29.4201117 15.60634022 33.46774256 18 38 C18 38.66 18 39.32 18 40 C20.475 39.505 20.475 39.505 23 39 C22.63648438 38.37432129 22.27296875 37.74864258 21.8984375 37.10400391 C20.26116246 34.28022923 18.63050984 31.45268598 17 28.625 C16.42765625 27.64015625 15.8553125 26.6553125 15.265625 25.640625 C14.72421875 24.69960937 14.1828125 23.75859375 13.625 22.7890625 C13.12226562 21.91975098 12.61953125 21.05043945 12.1015625 20.15478516 C11 18 11 18 11 16 C10.01 16.495 10.01 16.495 9 17 C8.505 18.485 8.505 18.485 8 20 C7.34 20 6.68 20 6 20 C5.34 22.31 4.68 24.62 4 27 C3.34 27 2.68 27 2 27 C1.73316406 27.69609375 1.46632813 28.3921875 1.19140625 29.109375 C-0.09611827 32.23320497 -1.54859542 35.22963018 -3.0625 38.25 C-3.58972656 39.30703125 -4.11695313 40.3640625 -4.66015625 41.453125 C-6 44 -6 44 -7 45 C-9.86267567 45.07325168 -12.700719 45.09238205 -15.5625 45.0625 C-16.36880859 45.05798828 -17.17511719 45.05347656 -18.00585938 45.04882812 C-20.00393756 45.03700518 -22.00197783 45.01906914 -24 45 C-23.21258341 40.2009031 -21.50483074 37.12085057 -19 33 C-18.34 33 -17.68 33 -17 33 C-16.01 29.535 -16.01 29.535 -15 26 C-14.34 26 -13.68 26 -13 26 C-12.01 22.535 -12.01 22.535 -11 19 C-10.34 19 -9.68 19 -9 19 C-8.01 15.535 -8.01 15.535 -7 12 C-6.34 12 -5.68 12 -5 12 C-4.731875 11.319375 -4.46375 10.63875 -4.1875 9.9375 C-2.83946694 6.60289191 -1.42463702 3.30256763 0 0 Z " fill="#39465D" transform="translate(627,64)"/>
<path d="M0 0 C16.17 0 32.34 0 49 0 C49 4.95 49 9.9 49 15 C45.04 15 41.08 15 37 15 C37 13.35 37 11.7 37 10 C39.64 10 42.28 10 45 10 C45 8.35 45 6.7 45 5 C31.8 5 18.6 5 5 5 C5 6.65 5 8.3 5 10 C10.61 10 16.22 10 22 10 C22 19.9 22 29.8 22 40 C23.65 40 25.3 40 27 40 C27 30.1 27 20.2 27 10 C28.65 10 30.3 10 32 10 C32 21.55 32 33.1 32 45 C27.05 45 22.1 45 17 45 C17 35.1 17 25.2 17 15 C11.39 15 5.78 15 0 15 C0 10.05 0 5.1 0 0 Z " fill="#35435A" transform="translate(485,64)"/>
<path d="M0 0 C1.65 0 3.3 0 5 0 C4.34 2.31 3.68 4.62 3 7 C2.34 7 1.68 7 1 7 C0.34 9.31 -0.32 11.62 -1 14 C-1.66 14 -2.32 14 -3 14 C-3.38285156 15.01126953 -3.38285156 15.01126953 -3.7734375 16.04296875 C-5.22868805 19.55132756 -6.90947835 22.92678552 -8.625 26.3125 C-8.94984375 26.95767578 -9.2746875 27.60285156 -9.609375 28.26757812 C-10.40441956 29.84597541 -11.20195634 31.42311694 -12 33 C-12.66 33 -13.32 33 -14 33 C-14.66 35.31 -15.32 37.62 -16 40 C-13.525 39.505 -13.525 39.505 -11 39 C-10.67 38.01 -10.34 37.02 -10 36 C-9.34 36 -8.68 36 -8 36 C-7.34 33.69 -6.68 31.38 -6 29 C-5.34 29 -4.68 29 -4 29 C-3.61714844 27.98873047 -3.61714844 27.98873047 -3.2265625 26.95703125 C-1.77131195 23.44867244 -0.09052165 20.07321448 1.625 16.6875 C1.94984375 16.04232422 2.2746875 15.39714844 2.609375 14.73242188 C3.40441956 13.15402459 4.20195634 11.57688306 5 10 C5.66 10 6.32 10 7 10 C7.33 8.68 7.66 7.36 8 6 C8.66 6 9.32 6 10 6 C10.4532666 6.79583496 10.9065332 7.59166992 11.37353516 8.41162109 C13.08356885 11.41278907 14.79462857 14.41336742 16.50634766 17.41357422 C17.24177461 18.70305919 17.97681216 19.99276634 18.71142578 21.28271484 C22.7177134 28.316947 26.74827734 35.32787491 30.98193359 42.22900391 C32 44 32 44 32 45 C26.06 45 20.12 45 14 45 C12.63875 42.793125 11.2775 40.58625 9.875 38.3125 C9.43913574 37.62712158 9.00327148 36.94174316 8.55419922 36.2355957 C7.5546875 34.55078125 7.5546875 34.55078125 6 31 C6.7578125 28.04296875 6.7578125 28.04296875 8 26 C8.66 26 9.32 26 10 26 C11.7265625 28.5546875 11.7265625 28.5546875 13.625 31.875 C14.25664063 32.96554688 14.88828125 34.05609375 15.5390625 35.1796875 C17 38 17 38 17 40 C19.475 39.505 19.475 39.505 22 39 C21.56131592 38.22136597 21.56131592 38.22136597 21.11376953 37.42700195 C19.7810092 35.05726844 18.45297034 32.68492083 17.125 30.3125 C16.66480469 29.49587891 16.20460938 28.67925781 15.73046875 27.83789062 C13.56702462 23.96563918 11.48666411 20.19512689 10 16 C7.7522025 18.05233685 6.9977758 19.00667261 6 22 C5.34 22 4.68 22 4 22 C3.76410156 22.64453125 3.52820313 23.2890625 3.28515625 23.953125 C1.57121876 28.01656342 -0.48710992 31.86151242 -2.5625 35.75 C-2.97435547 36.52988281 -3.38621094 37.30976562 -3.81054688 38.11328125 C-6.86811514 43.86811514 -6.86811514 43.86811514 -8 45 C-10.86267567 45.07325168 -13.700719 45.09238205 -16.5625 45.0625 C-17.36880859 45.05798828 -18.17511719 45.05347656 -19.00585938 45.04882812 C-21.00393756 45.03700518 -23.00197783 45.01906914 -25 45 C-24.18174726 41.34566735 -22.73565302 38.3203797 -21 35 C-20.34 35 -19.68 35 -19 35 C-18.34 32.69 -17.68 30.38 -17 28 C-16.34 28 -15.68 28 -15 28 C-14.01 24.535 -14.01 24.535 -13 21 C-12.34 21 -11.68 21 -11 21 C-10.74476563 20.32582031 -10.48953125 19.65164062 -10.2265625 18.95703125 C-8.77131195 15.44867244 -7.09052165 12.07321448 -5.375 8.6875 C-5.05015625 8.04232422 -4.7253125 7.39714844 -4.390625 6.73242188 C-3.59558044 5.15402459 -2.79804366 3.57688306 -2 2 C-1.34 2 -0.68 2 0 2 C0 1.34 0 0.68 0 0 Z " fill="#38455C" transform="translate(815,64)"/>
<path d="M0 0 C2.75 1.375 2.75 1.375 4.75 3.375 C5.9354686 12.94183049 4.18097166 23.36423693 3.4375 32.94921875 C3.30261804 34.72708959 3.16810267 36.50498828 3.03393555 38.28291321 C2.68247864 42.92731595 2.32609314 47.57132736 1.96862793 52.215271 C1.60367201 56.9681545 1.24345034 61.72139663 0.8828125 66.47460938 C0.17646926 75.7750936 -0.535089 85.07517071 -1.25 94.375 C-3.62588201 90.81117698 -3.74850009 87.95619101 -4.02783203 83.81762695 C-4.08664551 83.04975357 -4.14545898 82.28188019 -4.20605469 81.49073792 C-4.39852321 78.94880963 -4.57831807 76.40615602 -4.7578125 73.86328125 C-4.88879022 72.09306338 -5.02046316 70.32289682 -5.15280151 68.55278015 C-5.42869452 64.83837315 -5.69879682 61.1236072 -5.96435547 57.40844727 C-6.30376613 52.66125992 -6.65331064 47.91489282 -7.00671577 43.16872883 C-7.27871929 39.50993268 -7.54735465 35.85089595 -7.814785 32.19176292 C-7.9426198 30.44274078 -8.07100238 28.69375858 -8.19995499 26.9448185 C-8.38003643 24.48987167 -8.55609869 22.03466943 -8.73095703 19.5793457 C-8.78391937 18.86476196 -8.83688171 18.15017822 -8.89144897 17.41394043 C-9.0322877 15.40233962 -9.14153793 13.38860606 -9.25 11.375 C-9.29089626 10.65070486 -9.33179253 9.92640972 -9.37392807 9.18016624 C-9.43910744 7.24576774 -9.3540127 5.30769948 -9.25 3.375 C-6.01539672 0.14039672 -4.55536808 -0.87603232 0 0 Z " fill="#3B485F" transform="translate(125.25,64.625)"/>
<path d="M0 0 C2.31 0.66 4.62 1.32 7 2 C10.16456012 16.5600194 13.0489796 31.17250218 15.81787109 45.81234741 C16.18928821 47.77077111 16.56363798 49.7286409 16.94091797 51.6859436 C17.47682959 54.47140552 18.00155046 57.25875591 18.5234375 60.046875 C18.68774261 60.89076279 18.85204773 61.73465057 19.02133179 62.60411072 C19.16559601 63.3879866 19.30986023 64.17186249 19.45849609 64.97949219 C19.58775482 65.66211121 19.71701355 66.34473022 19.85018921 67.04803467 C20.01859626 69.24230063 19.63921706 70.90611011 19 73 C18.74307373 72.19369141 18.48614746 71.38738281 18.22143555 70.55664062 C17.25576239 67.52943023 16.28826568 64.50281015 15.31958008 61.4765625 C14.90284695 60.17340631 14.48681499 58.87002566 14.0715332 57.56640625 C11.86584242 50.64409389 9.60442794 43.78220531 7 37 C6.32136945 35.0040278 5.65358081 33.00431449 5 31 C3.14641245 25.39711037 1.23015857 19.85015612 -1.109375 14.4296875 C-1.48578125 13.54539062 -1.8621875 12.66109375 -2.25 11.75 C-2.60578125 10.94046875 -2.9615625 10.1309375 -3.328125 9.296875 C-4.08646833 6.70439897 -4.10887662 5.4569227 -3 3 C-2.01 2.67 -1.02 2.34 0 2 C0 1.34 0 0.68 0 0 Z " fill="#3C4960" transform="translate(76,85)"/>
<path d="M0 0 C2.37179967 1.96286869 2.93588014 3.56218581 3.8125 6.5 C3.44126892 8.86729431 3.44126892 8.86729431 2.55834961 11.34350586 C2.23398422 12.27895737 1.90961884 13.21440887 1.57542419 14.1782074 C1.20893265 15.18029739 0.8424411 16.18238739 0.46484375 17.21484375 C0.09653946 18.26217178 -0.27176483 19.30949982 -0.65122986 20.38856506 C-1.83529254 23.74395218 -3.04223901 27.09057932 -4.25 30.4375 C-5.03732773 32.65636213 -5.82315161 34.87575848 -6.60742188 37.09570312 C-8.4581898 42.32338772 -10.32624245 47.54462902 -12.20343018 52.76287842 C-13.5572681 56.52848418 -14.90196026 60.29732845 -16.24609375 64.06640625 C-16.89316259 65.87762795 -17.54026534 67.68883755 -18.1875 69.5 C-18.5175 69.5 -18.8475 69.5 -19.1875 69.5 C-18.24834989 57.71090264 -15.88248122 46.16367289 -13.68701172 34.55737305 C-13.18249383 31.88364943 -12.69064426 29.20805125 -12.20947266 26.5300293 C-11.51268413 22.65210466 -10.78123646 18.78115116 -10.046875 14.91015625 C-9.83520691 13.71020523 -9.62353882 12.51025421 -9.40545654 11.27394104 C-9.18883362 10.16526169 -8.97221069 9.05658234 -8.74902344 7.91430664 C-8.56772888 6.93853165 -8.38643433 5.96275665 -8.199646 4.95741272 C-6.70389393 1.3258416 -4.0049743 -0.9154227 0 0 Z " fill="#39465D" transform="translate(170.1875,85.5)"/>
</svg>
